<?xml version="1.0" encoding="UTF-8" standalone="no"?>
<svg
   xmlns:dc="http://purl.org/dc/elements/1.1/"
   xmlns:cc="http://creativecommons.org/ns#"
   xmlns:rdf="http://www.w3.org/1999/02/22-rdf-syntax-ns#"
   xmlns:svg="http://www.w3.org/2000/svg"
   xmlns="http://www.w3.org/2000/svg"
   width="512"
   height="512"
   viewBox="0 0 135.46666 135.46666"
   version="1.1"
   id="svg8">
  <defs
     id="defs2" />
  <metadata
     id="metadata5">
    <rdf:RDF>
      <cc:Work
         rdf:about="">
        <dc:format>image/svg+xml</dc:format>
        <dc:type
           rdf:resource="http://purl.org/dc/dcmitype/StillImage" />
        <dc:title></dc:title>
      </cc:Work>
    </rdf:RDF>
  </metadata>
  <g
     id="layer1"
     transform="translate(165.01746,-84.47768)">
    <g
       id="g930"
       transform="matrix(0.67818415,0,0,0.67818415,-32.815256,36.061532)"
       style="stroke-width:1.47453">
      <path
         id="path898"
         style="fill:#3d89cf;fill-opacity:1;stroke-width:16.7191;stroke-linejoin:round;paint-order:fill markers stroke;stop-color:#000000"
         d="m 299.71484,505.25195 59.42969,150.78125 50.68555,-81.40039 94.57226,24.14649 -71.92382,-182.47657 a 251.52797,251.52797 0 0 1 -0.0371,0.0488 251.52797,251.52797 0 0 1 -0.81836,1.05274 251.52797,251.52797 0 0 1 -0.82227,1.04882 251.52797,251.52797 0 0 1 -0.83008,1.04493 251.52797,251.52797 0 0 1 -0.83398,1.04101 251.52797,251.52797 0 0 1 -0.83984,1.03516 251.52797,251.52797 0 0 1 -0.84571,1.03125 251.52797,251.52797 0 0 1 -0.85156,1.02734 251.52797,251.52797 0 0 1 -0.85547,1.02149 251.52797,251.52797 0 0 1 -0.86133,1.01953 251.52797,251.52797 0 0 1 -0.86719,1.01172 251.52797,251.52797 0 0 1 -0.87304,1.00976 251.52797,251.52797 0 0 1 -0.87696,1.00391 251.52797,251.52797 0 0 1 -0.88476,1 251.52797,251.52797 0 0 1 -0.88672,0.99414 251.52797,251.52797 0 0 1 -0.89453,0.99023 251.52797,251.52797 0 0 1 -0.89844,0.98438 251.52797,251.52797 0 0 1 -0.90429,0.98047 251.52797,251.52797 0 0 1 -0.91016,0.97461 251.52797,251.52797 0 0 1 -0.91406,0.97265 251.52797,251.52797 0 0 1 -0.91993,0.96485 251.52797,251.52797 0 0 1 -0.92382,0.96093 251.52797,251.52797 0 0 1 -0.92969,0.95704 251.52797,251.52797 0 0 1 -0.93555,0.95117 251.52797,251.52797 0 0 1 -0.93945,0.94531 251.52797,251.52797 0 0 1 -0.94531,0.94141 251.52797,251.52797 0 0 1 -0.94922,0.93554 251.52797,251.52797 0 0 1 -0.95508,0.93164 251.52797,251.52797 0 0 1 -0.95899,0.92579 251.52797,251.52797 0 0 1 -0.96484,0.92187 251.52797,251.52797 0 0 1 -0.9707,0.91406 251.52797,251.52797 0 0 1 -0.97266,0.91211 251.52797,251.52797 0 0 1 -0.98047,0.9043 251.52797,251.52797 0 0 1 -0.98437,0.90039 251.52797,251.52797 0 0 1 -0.98828,0.89453 251.52797,251.52797 0 0 1 -0.99219,0.89063 251.52797,251.52797 0 0 1 -0.99805,0.88476 251.52797,251.52797 0 0 1 -1.0039,0.87891 251.52797,251.52797 0 0 1 -1.00782,0.87304 251.52797,251.52797 0 0 1 -1.01172,0.86914 251.52797,251.52797 0 0 1 -1.01562,0.86329 251.52797,251.52797 0 0 1 -1.02148,0.85742 251.52797,251.52797 0 0 1 -1.0254,0.85156 251.52797,251.52797 0 0 1 -1.03124,0.84766 251.52797,251.52797 0 0 1 -1.03516,0.84179 251.52797,251.52797 0 0 1 -1.03906,0.83594 251.52797,251.52797 0 0 1 -1.04297,0.83008 251.52797,251.52797 0 0 1 -1.04883,0.82422 251.52797,251.52797 0 0 1 -1.05078,0.82031 251.52797,251.52797 0 0 1 -1.0586,0.8125 251.52797,251.52797 0 0 1 -1.06054,0.80859 251.52797,251.52797 0 0 1 -1.06446,0.80274 251.52797,251.52797 0 0 1 -1.07031,0.79687 251.52797,251.52797 0 0 1 -1.07226,0.79102 251.52797,251.52797 0 0 1 -1.07813,0.78516 251.52797,251.52797 0 0 1 -1.08203,0.77929 251.52797,251.52797 0 0 1 -1.08594,0.77344 251.52797,251.52797 0 0 1 -1.09179,0.76953 251.52797,251.52797 0 0 1 -1.09375,0.76172 251.52797,251.52797 0 0 1 -1.09766,0.75586 251.52797,251.52797 0 0 1 -1.10352,0.75 251.52797,251.52797 0 0 1 -1.10547,0.74609 251.52797,251.52797 0 0 1 -1.10937,0.73828 251.52797,251.52797 0 0 1 -1.11523,0.73243 251.52797,251.52797 0 0 1 -1.11719,0.72851 251.52797,251.52797 0 0 1 -1.12305,0.7207 251.52797,251.52797 0 0 1 -1.125,0.71485 251.52797,251.52797 0 0 1 -1.1289,0.70898 251.52797,251.52797 0 0 1 -1.13282,0.70313 251.52797,251.52797 0 0 1 -1.13672,0.69726 251.52797,251.52797 0 0 1 -1.14062,0.69141 251.52797,251.52797 0 0 1 -1.14453,0.68555 251.52797,251.52797 0 0 1 -1.14844,0.67968 251.52797,251.52797 0 0 1 -1.15039,0.67188 251.52797,251.52797 0 0 1 -1.15625,0.66797 251.52797,251.52797 0 0 1 -1.1582,0.66015 251.52797,251.52797 0 0 1 -1.16211,0.6543 251.52797,251.52797 0 0 1 -1.16407,0.64844 251.52797,251.52797 0 0 1 -1.16992,0.64258 251.52797,251.52797 0 0 1 -1.17187,0.63672 251.52797,251.52797 0 0 1 -1.17578,0.6289 251.52797,251.52797 0 0 1 -1.17969,0.62305 251.52797,251.52797 0 0 1 -1.18164,0.61719 251.52797,251.52797 0 0 1 -1.18555,0.61132 251.52797,251.52797 0 0 1 -1.1875,0.60547 251.52797,251.52797 0 0 1 -1.19336,0.59766 251.52797,251.52797 0 0 1 -1.19336,0.5918 251.52797,251.52797 0 0 1 -1.19922,0.58593 251.52797,251.52797 0 0 1 -1.20117,0.58008 251.52797,251.52797 0 0 1 -1.20312,0.57227 251.52797,251.52797 0 0 1 -1.20899,0.5664 251.52797,251.52797 0 0 1 -1.20898,0.56055 251.52797,251.52797 0 0 1 -1.21289,0.55469 251.52797,251.52797 0 0 1 -1.2168,0.54687 251.52797,251.52797 0 0 1 -1.21875,0.54102 251.52797,251.52797 0 0 1 -1.22266,0.5332 251.52797,251.52797 0 0 1 -1.2246,0.5293 251.52797,251.52797 0 0 1 -1.22657,0.52148 251.52797,251.52797 0 0 1 -1.23047,0.51368 251.52797,251.52797 0 0 1 -1.23242,0.50781 251.52797,251.52797 0 0 1 -1.23633,0.50195 251.52797,251.52797 0 0 1 -1.23828,0.49609 251.52797,251.52797 0 0 1 -1.24023,0.48829 251.52797,251.52797 0 0 1 -1.24414,0.48242 251.52797,251.52797 0 0 1 -1.2461,0.47461 251.52797,251.52797 0 0 1 -1.24804,0.4707 251.52797,251.52797 0 0 1 -1.25196,0.46094 251.52797,251.52797 0 0 1 -1.25195,0.45508 251.52797,251.52797 0 0 1 -1.25586,0.44921 251.52797,251.52797 0 0 1 -1.25976,0.44336 251.52797,251.52797 0 0 1 -1.25977,0.43555 251.52797,251.52797 0 0 1 -1.26172,0.42773 251.52797,251.52797 0 0 1 -1.26562,0.42383 251.52797,251.52797 0 0 1 -1.26758,0.41407 251.52797,251.52797 0 0 1 -1.26953,0.41015 251.52797,251.52797 0 0 1 -1.27149,0.40235 251.52797,251.52797 0 0 1 -1.27344,0.39453 251.52797,251.52797 0 0 1 -1.27539,0.38867 251.52797,251.52797 0 0 1 -1.27929,0.38086 251.52797,251.52797 0 0 1 -1.2793,0.375 251.52797,251.52797 0 0 1 -1.28125,0.36914 251.52797,251.52797 0 0 1 -1.2832,0.36133 251.52797,251.52797 0 0 1 -1.15235,0.3164 z"
         transform="matrix(0.26458333,0,0,0.26458333,-158.56101,84.47768)" />
      <path
         id="path915"
         style="fill:#76acdd;fill-opacity:1;stroke-width:16.7191;stroke-linejoin:round;paint-order:fill markers stroke;stop-color:#000000"
         d="m 299.71484,505.25195 a 251.52797,251.52797 0 0 0 1.15235,-0.3164 251.52797,251.52797 0 0 0 1.2832,-0.36133 251.52797,251.52797 0 0 0 1.28125,-0.36914 251.52797,251.52797 0 0 0 1.2793,-0.375 251.52797,251.52797 0 0 0 1.27929,-0.38086 251.52797,251.52797 0 0 0 1.27539,-0.38867 251.52797,251.52797 0 0 0 1.27344,-0.39453 251.52797,251.52797 0 0 0 1.27149,-0.40235 251.52797,251.52797 0 0 0 1.26953,-0.41015 251.52797,251.52797 0 0 0 1.26758,-0.41407 251.52797,251.52797 0 0 0 1.26562,-0.42383 251.52797,251.52797 0 0 0 1.26172,-0.42773 251.52797,251.52797 0 0 0 1.25977,-0.43555 251.52797,251.52797 0 0 0 1.25976,-0.44336 251.52797,251.52797 0 0 0 1.25586,-0.44921 251.52797,251.52797 0 0 0 1.25195,-0.45508 251.52797,251.52797 0 0 0 1.25196,-0.46094 251.52797,251.52797 0 0 0 1.24804,-0.4707 251.52797,251.52797 0 0 0 1.2461,-0.47461 251.52797,251.52797 0 0 0 1.24414,-0.48242 251.52797,251.52797 0 0 0 1.24023,-0.48829 251.52797,251.52797 0 0 0 1.23828,-0.49609 251.52797,251.52797 0 0 0 1.23633,-0.50195 251.52797,251.52797 0 0 0 1.23242,-0.50781 251.52797,251.52797 0 0 0 1.23047,-0.51368 251.52797,251.52797 0 0 0 1.22657,-0.52148 251.52797,251.52797 0 0 0 1.2246,-0.5293 251.52797,251.52797 0 0 0 1.22266,-0.5332 251.52797,251.52797 0 0 0 1.21875,-0.54102 251.52797,251.52797 0 0 0 1.2168,-0.54687 251.52797,251.52797 0 0 0 1.21289,-0.55469 251.52797,251.52797 0 0 0 1.20898,-0.56055 251.52797,251.52797 0 0 0 1.20899,-0.5664 251.52797,251.52797 0 0 0 1.20312,-0.57227 251.52797,251.52797 0 0 0 1.20117,-0.58008 251.52797,251.52797 0 0 0 1.19922,-0.58593 251.52797,251.52797 0 0 0 1.19336,-0.5918 251.52797,251.52797 0 0 0 1.19336,-0.59766 251.52797,251.52797 0 0 0 1.1875,-0.60547 251.52797,251.52797 0 0 0 1.18555,-0.61132 251.52797,251.52797 0 0 0 1.18164,-0.61719 251.52797,251.52797 0 0 0 1.17969,-0.62305 251.52797,251.52797 0 0 0 1.17578,-0.6289 251.52797,251.52797 0 0 0 1.17187,-0.63672 251.52797,251.52797 0 0 0 1.16992,-0.64258 251.52797,251.52797 0 0 0 1.16407,-0.64844 251.52797,251.52797 0 0 0 1.16211,-0.6543 251.52797,251.52797 0 0 0 1.1582,-0.66015 251.52797,251.52797 0 0 0 1.15625,-0.66797 251.52797,251.52797 0 0 0 1.15039,-0.67188 251.52797,251.52797 0 0 0 1.14844,-0.67968 251.52797,251.52797 0 0 0 1.14453,-0.68555 251.52797,251.52797 0 0 0 1.14062,-0.69141 251.52797,251.52797 0 0 0 1.13672,-0.69726 251.52797,251.52797 0 0 0 1.13282,-0.70313 251.52797,251.52797 0 0 0 1.1289,-0.70898 251.52797,251.52797 0 0 0 1.125,-0.71485 251.52797,251.52797 0 0 0 1.12305,-0.7207 251.52797,251.52797 0 0 0 1.11719,-0.72851 251.52797,251.52797 0 0 0 1.11523,-0.73243 251.52797,251.52797 0 0 0 1.10937,-0.73828 251.52797,251.52797 0 0 0 1.10547,-0.74609 251.52797,251.52797 0 0 0 1.10352,-0.75 251.52797,251.52797 0 0 0 1.09766,-0.75586 251.52797,251.52797 0 0 0 1.09375,-0.76172 251.52797,251.52797 0 0 0 1.09179,-0.76953 251.52797,251.52797 0 0 0 1.08594,-0.77344 251.52797,251.52797 0 0 0 1.08203,-0.77929 251.52797,251.52797 0 0 0 1.07813,-0.78516 251.52797,251.52797 0 0 0 1.07226,-0.79102 251.52797,251.52797 0 0 0 1.07031,-0.79687 251.52797,251.52797 0 0 0 1.06446,-0.80274 251.52797,251.52797 0 0 0 1.06054,-0.80859 251.52797,251.52797 0 0 0 1.0586,-0.8125 251.52797,251.52797 0 0 0 1.05078,-0.82031 251.52797,251.52797 0 0 0 1.04883,-0.82422 251.52797,251.52797 0 0 0 1.04297,-0.83008 251.52797,251.52797 0 0 0 1.03906,-0.83594 251.52797,251.52797 0 0 0 1.03516,-0.84179 251.52797,251.52797 0 0 0 1.03124,-0.84766 251.52797,251.52797 0 0 0 1.0254,-0.85156 251.52797,251.52797 0 0 0 1.02148,-0.85742 251.52797,251.52797 0 0 0 1.01562,-0.86329 251.52797,251.52797 0 0 0 1.01172,-0.86914 251.52797,251.52797 0 0 0 1.00782,-0.87304 251.52797,251.52797 0 0 0 1.0039,-0.87891 251.52797,251.52797 0 0 0 0.99805,-0.88476 251.52797,251.52797 0 0 0 0.99219,-0.89063 251.52797,251.52797 0 0 0 0.98828,-0.89453 251.52797,251.52797 0 0 0 0.98437,-0.90039 251.52797,251.52797 0 0 0 0.98047,-0.9043 251.52797,251.52797 0 0 0 0.97266,-0.91211 251.52797,251.52797 0 0 0 0.9707,-0.91406 251.52797,251.52797 0 0 0 0.96484,-0.92187 251.52797,251.52797 0 0 0 0.95899,-0.92579 251.52797,251.52797 0 0 0 0.95508,-0.93164 251.52797,251.52797 0 0 0 0.94922,-0.93554 251.52797,251.52797 0 0 0 0.94531,-0.94141 251.52797,251.52797 0 0 0 0.93945,-0.94531 251.52797,251.52797 0 0 0 0.93555,-0.95117 251.52797,251.52797 0 0 0 0.92969,-0.95704 251.52797,251.52797 0 0 0 0.92382,-0.96093 251.52797,251.52797 0 0 0 0.91993,-0.96485 251.52797,251.52797 0 0 0 0.91406,-0.97265 251.52797,251.52797 0 0 0 0.91016,-0.97461 251.52797,251.52797 0 0 0 0.90429,-0.98047 251.52797,251.52797 0 0 0 0.89844,-0.98438 251.52797,251.52797 0 0 0 0.89453,-0.99023 251.52797,251.52797 0 0 0 0.88672,-0.99414 251.52797,251.52797 0 0 0 0.88476,-1 251.52797,251.52797 0 0 0 0.87696,-1.00391 251.52797,251.52797 0 0 0 0.87304,-1.00976 251.52797,251.52797 0 0 0 0.86719,-1.01172 251.52797,251.52797 0 0 0 0.86133,-1.01953 251.52797,251.52797 0 0 0 0.85547,-1.02149 251.52797,251.52797 0 0 0 0.85156,-1.02734 251.52797,251.52797 0 0 0 0.84571,-1.03125 251.52797,251.52797 0 0 0 0.83984,-1.03516 251.52797,251.52797 0 0 0 0.83398,-1.04101 251.52797,251.52797 0 0 0 0.83008,-1.04493 251.52797,251.52797 0 0 0 0.82227,-1.04882 251.52797,251.52797 0 0 0 0.81836,-1.05274 251.52797,251.52797 0 0 0 0.0371,-0.0488 l -15.14454,-38.42382 -145.25586,57.25195 z"
         transform="matrix(0.26458333,0,0,0.26458333,-158.56101,84.47768)" />
      <path
         id="rect887"
         style="fill:#3d89cf;fill-opacity:1;stroke-width:16.7191;stroke-linejoin:round;paint-order:fill markers stroke;stop-color:#000000"
         d="M 43.193359,427.28516 -24.402344,598.7793 70.169922,574.63281 120.85547,656.0332 179.10352,508.25 a 251.52797,251.52797 0 0 1 -0.008,-0.002 251.52797,251.52797 0 0 1 -1.30078,-0.29102 251.52797,251.52797 0 0 1 -1.30078,-0.29883 251.52797,251.52797 0 0 1 -1.29687,-0.30468 251.52797,251.52797 0 0 1 -1.29688,-0.31055 251.52797,251.52797 0 0 1 -1.29492,-0.32031 251.52797,251.52797 0 0 1 -1.29492,-0.32422 251.52797,251.52797 0 0 1 -1.29102,-0.33203 251.52797,251.52797 0 0 1 -1.28906,-0.33985 251.52797,251.52797 0 0 1 -1.28906,-0.3457 251.52797,251.52797 0 0 1 -1.28516,-0.35352 251.52797,251.52797 0 0 1 -1.28516,-0.35937 251.52797,251.52797 0 0 1 -1.28125,-0.36719 251.52797,251.52797 0 0 1 -1.28125,-0.37305 251.52797,251.52797 0 0 1 -1.27734,-0.3789 251.52797,251.52797 0 0 1 -1.27734,-0.38672 251.52797,251.52797 0 0 1 -1.27344,-0.39453 251.52797,251.52797 0 0 1 -1.27149,-0.40039 251.52797,251.52797 0 0 1 -1.27148,-0.40625 251.52797,251.52797 0 0 1 -1.26758,-0.41406 251.52797,251.52797 0 0 1 -1.26562,-0.41993 251.52797,251.52797 0 0 1 -1.26368,-0.42773 251.52797,251.52797 0 0 1 -1.25976,-0.4336 251.52797,251.52797 0 0 1 -1.25977,-0.4414 251.52797,251.52797 0 0 1 -1.25586,-0.44727 251.52797,251.52797 0 0 1 -1.2539,-0.45312 251.52797,251.52797 0 0 1 -1.25195,-0.46094 251.52797,251.52797 0 0 1 -1.24805,-0.4668 251.52797,251.52797 0 0 1 -1.24805,-0.47461 251.52797,251.52797 0 0 1 -1.24414,-0.48046 251.52797,251.52797 0 0 1 -1.24023,-0.48633 251.52797,251.52797 0 0 1 -1.24024,-0.49414 251.52797,251.52797 0 0 1 -1.23633,-0.5 251.52797,251.52797 0 0 1 -1.23242,-0.50586 251.52797,251.52797 0 0 1 -1.23242,-0.51367 251.52797,251.52797 0 0 1 -1.22656,-0.51954 251.52797,251.52797 0 0 1 -1.22656,-0.52734 251.52797,251.52797 0 0 1 -1.22266,-0.53125 251.52797,251.52797 0 0 1 -1.21875,-0.53906 251.52797,251.52797 0 0 1 -1.2168,-0.54688 251.52797,251.52797 0 0 1 -1.21484,-0.55078 251.52797,251.52797 0 0 1 -1.21094,-0.55859 251.52797,251.52797 0 0 1 -1.20898,-0.56641 251.52797,251.52797 0 0 1 -1.20508,-0.57031 251.52797,251.52797 0 0 1 -1.20117,-0.57813 251.52797,251.52797 0 0 1 -1.19922,-0.58398 251.52797,251.52797 0 0 1 -1.19532,-0.58984 251.52797,251.52797 0 0 1 -1.19335,-0.59766 251.52797,251.52797 0 0 1 -1.18946,-0.60352 251.52797,251.52797 0 0 1 -1.18554,-0.60937 251.52797,251.52797 0 0 1 -1.1836,-0.61524 251.52797,251.52797 0 0 1 -1.17969,-0.62109 251.52797,251.52797 0 0 1 -1.17578,-0.62891 251.52797,251.52797 0 0 1 -1.17382,-0.63476 251.52797,251.52797 0 0 1 -1.16993,-0.64063 251.52797,251.52797 0 0 1 -1.16601,-0.64648 251.52797,251.52797 0 0 1 -1.16211,-0.65234 251.52797,251.52797 0 0 1 -1.16016,-0.66016 251.52797,251.52797 0 0 1 -1.15625,-0.66406 251.52797,251.52797 0 0 1 -1.15234,-0.67188 251.52797,251.52797 0 0 1 -1.14844,-0.67773 251.52797,251.52797 0 0 1 -1.14453,-0.6836 251.52797,251.52797 0 0 1 -1.14063,-0.68945 251.52797,251.52797 0 0 1 -1.13867,-0.69531 251.52797,251.52797 0 0 1 -1.13476,-0.70117 251.52797,251.52797 0 0 1 -1.128909,-0.70899 251.52797,251.52797 0 0 1 -1.126953,-0.71289 251.52797,251.52797 0 0 1 -1.123047,-0.7207 251.52797,251.52797 0 0 1 -1.119141,-0.72461 251.52797,251.52797 0 0 1 -1.115234,-0.73242 251.52797,251.52797 0 0 1 -1.111328,-0.73633 251.52797,251.52797 0 0 1 -1.107422,-0.74414 251.52797,251.52797 0 0 1 -1.103516,-0.74805 251.52797,251.52797 0 0 1 -1.099609,-0.75586 251.52797,251.52797 0 0 1 -1.09375,-0.75976 251.52797,251.52797 0 0 1 -1.091797,-0.76758 251.52797,251.52797 0 0 1 -1.087891,-0.77149 251.52797,251.52797 0 0 1 -1.082031,-0.77929 251.52797,251.52797 0 0 1 -1.080078,-0.78321 251.52797,251.52797 0 0 1 -1.074219,-0.78906 251.52797,251.52797 0 0 1 -1.070313,-0.79687 251.52797,251.52797 0 0 1 -1.066406,-0.80078 251.52797,251.52797 0 0 1 -1.0625,-0.80664 251.52797,251.52797 0 0 1 -1.05664,-0.81055 251.52797,251.52797 0 0 1 -1.054688,-0.81836 251.52797,251.52797 0 0 1 -1.048828,-0.82422 251.52797,251.52797 0 0 1 -1.044922,-0.82813 251.52797,251.52797 0 0 1 -1.041016,-0.83398 251.52797,251.52797 0 0 1 -1.035156,-0.83984 251.52797,251.52797 0 0 1 -1.03125,-0.84571 251.52797,251.52797 0 0 1 -1.027344,-0.85156 251.52797,251.52797 0 0 1 -1.021484,-0.85547 251.52797,251.52797 0 0 1 -1.017578,-0.86328 251.52797,251.52797 0 0 1 -1.013672,-0.86719 251.52797,251.52797 0 0 1 -1.009766,-0.87109 251.52797,251.52797 0 0 1 -1.003906,-0.87891 251.52797,251.52797 0 0 1 -0.998047,-0.88281 251.52797,251.52797 0 0 1 -0.996093,-0.88867 251.52797,251.52797 0 0 1 -0.988282,-0.89258 251.52797,251.52797 0 0 1 -0.986328,-0.89844 251.52797,251.52797 0 0 1 -0.980468,-0.90429 251.52797,251.52797 0 0 1 -0.97461,-0.91016 251.52797,251.52797 0 0 1 -0.970703,-0.91406 251.52797,251.52797 0 0 1 -0.966797,-0.91992 251.52797,251.52797 0 0 1 -0.960937,-0.92383 251.52797,251.52797 0 0 1 -0.955079,-0.92969 251.52797,251.52797 0 0 1 -0.951171,-0.93555 251.52797,251.52797 0 0 1 -0.947266,-0.93945 251.52797,251.52797 0 0 1 -0.941406,-0.94531 251.52797,251.52797 0 0 1 -0.935547,-0.94922 251.52797,251.52797 0 0 1 -0.931641,-0.95508 251.52797,251.52797 0 0 1 -0.925781,-0.96094 251.52797,251.52797 0 0 1 -0.919922,-0.96484 251.52797,251.52797 0 0 1 -0.916016,-0.96875 251.52797,251.52797 0 0 1 -0.910156,-0.97461 251.52797,251.52797 0 0 1 -0.90625,-0.97851 251.52797,251.52797 0 0 1 -0.90039,-0.98438 251.52797,251.52797 0 0 1 -0.894532,-0.98828 251.52797,251.52797 0 0 1 -0.890625,-0.99414 251.52797,251.52797 0 0 1 -0.884765,-0.99805 251.52797,251.52797 0 0 1 -0.878906,-1.00195 251.52797,251.52797 0 0 1 -0.580079,-0.66992 z"
         transform="matrix(0.26458333,0,0,0.26458333,-158.56101,84.47768)" />
      <path
         id="path919"
         style="fill:#76acdd;fill-opacity:1;stroke-width:16.7191;stroke-linejoin:round;paint-order:fill markers stroke;stop-color:#000000"
         d="m 43.193359,427.28516 a 251.52797,251.52797 0 0 0 0.580079,0.66992 251.52797,251.52797 0 0 0 0.878906,1.00195 251.52797,251.52797 0 0 0 0.884765,0.99805 251.52797,251.52797 0 0 0 0.890625,0.99414 251.52797,251.52797 0 0 0 0.894532,0.98828 251.52797,251.52797 0 0 0 0.90039,0.98438 251.52797,251.52797 0 0 0 0.90625,0.97851 251.52797,251.52797 0 0 0 0.910156,0.97461 251.52797,251.52797 0 0 0 0.916016,0.96875 251.52797,251.52797 0 0 0 0.919922,0.96484 251.52797,251.52797 0 0 0 0.925781,0.96094 251.52797,251.52797 0 0 0 0.931641,0.95508 251.52797,251.52797 0 0 0 0.935547,0.94922 251.52797,251.52797 0 0 0 0.941406,0.94531 251.52797,251.52797 0 0 0 0.947266,0.93945 251.52797,251.52797 0 0 0 0.951171,0.93555 251.52797,251.52797 0 0 0 0.955079,0.92969 251.52797,251.52797 0 0 0 0.960937,0.92383 251.52797,251.52797 0 0 0 0.966797,0.91992 251.52797,251.52797 0 0 0 0.970703,0.91406 251.52797,251.52797 0 0 0 0.97461,0.91016 251.52797,251.52797 0 0 0 0.980468,0.90429 251.52797,251.52797 0 0 0 0.986328,0.89844 251.52797,251.52797 0 0 0 0.988282,0.89258 251.52797,251.52797 0 0 0 0.996093,0.88867 251.52797,251.52797 0 0 0 0.998047,0.88281 251.52797,251.52797 0 0 0 1.003906,0.87891 251.52797,251.52797 0 0 0 1.009766,0.87109 251.52797,251.52797 0 0 0 1.013672,0.86719 251.52797,251.52797 0 0 0 1.017578,0.86328 251.52797,251.52797 0 0 0 1.021484,0.85547 251.52797,251.52797 0 0 0 1.027344,0.85156 251.52797,251.52797 0 0 0 1.03125,0.84571 251.52797,251.52797 0 0 0 1.035156,0.83984 251.52797,251.52797 0 0 0 1.041016,0.83398 251.52797,251.52797 0 0 0 1.044922,0.82813 251.52797,251.52797 0 0 0 1.048828,0.82422 251.52797,251.52797 0 0 0 1.054688,0.81836 251.52797,251.52797 0 0 0 1.05664,0.81055 251.52797,251.52797 0 0 0 1.0625,0.80664 251.52797,251.52797 0 0 0 1.066406,0.80078 251.52797,251.52797 0 0 0 1.070313,0.79687 251.52797,251.52797 0 0 0 1.074219,0.78906 251.52797,251.52797 0 0 0 1.080078,0.78321 251.52797,251.52797 0 0 0 1.082031,0.77929 251.52797,251.52797 0 0 0 1.087891,0.77149 251.52797,251.52797 0 0 0 1.091797,0.76758 251.52797,251.52797 0 0 0 1.09375,0.75976 251.52797,251.52797 0 0 0 1.099609,0.75586 251.52797,251.52797 0 0 0 1.103516,0.74805 251.52797,251.52797 0 0 0 1.107422,0.74414 251.52797,251.52797 0 0 0 1.111328,0.73633 251.52797,251.52797 0 0 0 1.115234,0.73242 251.52797,251.52797 0 0 0 1.119141,0.72461 251.52797,251.52797 0 0 0 1.123047,0.7207 251.52797,251.52797 0 0 0 1.126953,0.71289 251.52797,251.52797 0 0 0 1.128909,0.70899 251.52797,251.52797 0 0 0 1.13476,0.70117 251.52797,251.52797 0 0 0 1.13867,0.69531 251.52797,251.52797 0 0 0 1.14063,0.68945 251.52797,251.52797 0 0 0 1.14453,0.6836 251.52797,251.52797 0 0 0 1.14844,0.67773 251.52797,251.52797 0 0 0 1.15234,0.67188 251.52797,251.52797 0 0 0 1.15625,0.66406 251.52797,251.52797 0 0 0 1.16016,0.66016 251.52797,251.52797 0 0 0 1.16211,0.65234 251.52797,251.52797 0 0 0 1.16601,0.64648 251.52797,251.52797 0 0 0 1.16993,0.64063 251.52797,251.52797 0 0 0 1.17382,0.63476 251.52797,251.52797 0 0 0 1.17578,0.62891 251.52797,251.52797 0 0 0 1.17969,0.62109 251.52797,251.52797 0 0 0 1.1836,0.61524 251.52797,251.52797 0 0 0 1.18554,0.60937 251.52797,251.52797 0 0 0 1.18946,0.60352 251.52797,251.52797 0 0 0 1.19335,0.59766 251.52797,251.52797 0 0 0 1.19532,0.58984 251.52797,251.52797 0 0 0 1.19922,0.58398 251.52797,251.52797 0 0 0 1.20117,0.57813 251.52797,251.52797 0 0 0 1.20508,0.57031 251.52797,251.52797 0 0 0 1.20898,0.56641 251.52797,251.52797 0 0 0 1.21094,0.55859 251.52797,251.52797 0 0 0 1.21484,0.55078 251.52797,251.52797 0 0 0 1.2168,0.54688 251.52797,251.52797 0 0 0 1.21875,0.53906 251.52797,251.52797 0 0 0 1.22266,0.53125 251.52797,251.52797 0 0 0 1.22656,0.52734 251.52797,251.52797 0 0 0 1.22656,0.51954 251.52797,251.52797 0 0 0 1.23242,0.51367 251.52797,251.52797 0 0 0 1.23242,0.50586 251.52797,251.52797 0 0 0 1.23633,0.5 251.52797,251.52797 0 0 0 1.24024,0.49414 251.52797,251.52797 0 0 0 1.24023,0.48633 251.52797,251.52797 0 0 0 1.24414,0.48046 251.52797,251.52797 0 0 0 1.24805,0.47461 251.52797,251.52797 0 0 0 1.24805,0.4668 251.52797,251.52797 0 0 0 1.25195,0.46094 251.52797,251.52797 0 0 0 1.2539,0.45312 251.52797,251.52797 0 0 0 1.25586,0.44727 251.52797,251.52797 0 0 0 1.25977,0.4414 251.52797,251.52797 0 0 0 1.25976,0.4336 251.52797,251.52797 0 0 0 1.26368,0.42773 251.52797,251.52797 0 0 0 1.26562,0.41993 251.52797,251.52797 0 0 0 1.26758,0.41406 251.52797,251.52797 0 0 0 1.27148,0.40625 251.52797,251.52797 0 0 0 1.27149,0.40039 251.52797,251.52797 0 0 0 1.27344,0.39453 251.52797,251.52797 0 0 0 1.27734,0.38672 251.52797,251.52797 0 0 0 1.27734,0.3789 251.52797,251.52797 0 0 0 1.28125,0.37305 251.52797,251.52797 0 0 0 1.28125,0.36719 251.52797,251.52797 0 0 0 1.28516,0.35937 251.52797,251.52797 0 0 0 1.28516,0.35352 251.52797,251.52797 0 0 0 1.28906,0.3457 251.52797,251.52797 0 0 0 1.28906,0.33985 251.52797,251.52797 0 0 0 1.29102,0.33203 251.52797,251.52797 0 0 0 1.29492,0.32422 251.52797,251.52797 0 0 0 1.29492,0.32031 251.52797,251.52797 0 0 0 1.29688,0.31055 251.52797,251.52797 0 0 0 1.29687,0.30468 251.52797,251.52797 0 0 0 1.30078,0.29883 251.52797,251.52797 0 0 0 1.30078,0.29102 251.52797,251.52797 0 0 0 0.008,0.002 L 207.92188,435.13086 62.666016,377.87891 Z"
         transform="matrix(0.26458333,0,0,0.26458333,-158.56101,84.47768)" />
      <path
         style="fill:#d39135;fill-opacity:0.992157;stroke-width:4.42358;stroke-linejoin:round;paint-order:fill markers stroke;stop-color:#000000"
         d="m -97.412324,95.434837 c -7.732306,0.152831 -15.363856,2.296337 -22.225916,5.816763 -1.07899,0.60437 -2.14671,1.27456 -3.22316,1.86488 -0.13965,0.25792 -0.59435,0.2252 -0.76448,0.53141 -0.62289,0.34815 -1.23246,0.78512 -1.78423,1.21394 -0.3024,-0.0166 -0.27083,0.35406 -0.57969,0.35549 -2.67697,2.14325 -5.41488,4.25523 -7.74311,6.7943 -1.45898,1.49835 -2.70226,3.19293 -3.95359,4.85881 -1.56526,2.40346 -3.25059,4.76991 -4.46032,7.37444 -0.73112,1.69389 -1.55214,3.35162 -2.11258,5.11206 -0.39205,1.11118 -0.80828,2.23214 -1.08631,3.36983 -0.35201,1.1647 -0.64654,2.36659 -0.83443,3.57813 -0.32353,0.45878 -0.24272,1.13679 -0.30407,1.69444 0.24385,0.21274 -0.21929,0.46046 -0.16809,0.77493 -0.47671,2.46779 -0.48989,4.99406 -0.73022,7.47702 0.0457,4.65424 0.47772,9.32432 1.61078,13.84331 0.25799,1.4675 0.71778,2.86763 1.12769,4.2929 0.85527,2.48097 1.78616,4.91156 2.90486,7.28695 0.0702,0.29527 0.18714,0.72393 0.479,0.621 0.10208,0.67713 0.55236,1.45842 0.92866,1.8889 -0.0243,0.52615 0.59754,0.86045 0.70263,1.37889 0.7573,1.32244 1.56866,2.63998 2.44498,3.87519 0.28178,0.28854 0.598,0.62421 0.61713,1.01631 0.50145,0.12586 0.56347,0.81695 1.04194,1.05264 0.26448,0.13584 0.20858,0.41213 0.28945,0.58778 0.35085,-0.17441 0.19275,0.28585 0.4625,0.44397 1.00725,0.91853 1.71028,2.0888 2.77005,2.95923 0.36329,0.40176 0.873,0.73986 1.22125,1.11246 0.13299,0.50545 0.87553,0.52497 1.12128,0.99573 1.05034,0.81394 2.02387,1.76123 3.13258,2.50017 0.26385,0.0843 0.41454,0.40936 0.73943,0.46798 0.33541,0.22743 0.7186,0.50826 1.02366,0.70602 0.0872,0.25256 0.44499,0.12881 0.49122,0.41944 1.70882,0.8808 3.29352,2.01732 5.04549,2.83452 2.20266,1.09538 4.4789,2.06973 6.79632,2.89429 0.31974,0.003 0.50958,0.12109 0.72481,0.3166 1.19028,0.33626 2.44223,0.68117 3.62537,0.92317 1.38281,0.52062 2.8767,0.65726 4.31781,0.93754 1.30224,0.0724 2.56802,0.46776 3.884855,0.44753 2.989101,0.15383 6.008844,0.26886 8.986626,-0.0623 2.749889,-0.31813 5.532914,-0.58551 8.227655,-1.29039 1.614273,-0.2527 3.077893,-0.99755 4.617726,-1.48071 1.919237,-0.42105 3.685783,-1.38594 5.495991,-2.13215 2.073502,-0.90429 4.001989,-2.09222 5.951183,-3.22916 1.276201,-0.67813 2.28401,-1.7703 3.497995,-2.53332 2.607918,-1.94079 4.893664,-4.30336 7.164858,-6.62979 0.25186,-0.22834 0.515554,-0.61022 0.626153,-0.85845 0.349168,-0.33172 0.531984,-0.89563 0.923059,-1.24195 0.921274,-0.95858 1.583047,-2.11255 2.448346,-3.11501 0.254659,-0.61316 0.915876,-1.05431 1.024969,-1.7122 0.341255,0.20216 0.31976,-0.16048 0.279535,-0.37611 0.495038,-0.8349 1.038897,-1.66104 1.464765,-2.56881 1.38502,-2.56687 2.683759,-5.21594 3.510521,-8.01365 0.325049,-0.58148 0.393547,-1.21112 0.653558,-1.81425 0.123071,-0.80633 0.54628,-1.56543 0.680712,-2.38591 1.040646,-4.10731 1.47933,-8.35721 1.389846,-12.59345 0.0123,-1.26467 0.0155,-2.52627 -0.222062,-3.7607 -0.171755,-2.55061 -0.445538,-5.16158 -1.089232,-7.62592 0.07808,-0.93532 -0.443685,-1.84852 -0.576479,-2.77483 -0.817475,-2.90513 -1.702314,-5.81269 -3.055411,-8.51861 0.03027,-0.372 -0.36395,-0.40183 -0.364622,-0.75092 -0.657056,-1.4588 -1.461352,-2.89418 -2.342264,-4.20558 0.032,-0.4401 -0.48219,-0.57729 -0.5763,-1.00069 -0.288819,-0.30476 -0.443754,-0.69055 -0.63346,-1.03019 -1.680292,-2.21423 -3.371392,-4.44003 -5.378474,-6.37829 -1.615786,-1.62431 -3.247575,-3.28 -5.029639,-4.70061 -1.460103,-1.12652 -2.950006,-2.26389 -4.516699,-3.24951 -0.177266,-0.329 -0.667232,-0.27887 -0.89603,-0.61258 -2.438929,-1.41612 -4.925256,-2.78415 -7.530266,-3.885851 -3.794263,-1.460857 -7.707792,-2.759152 -11.756467,-3.285014 -0.807503,-0.0168 -1.552162,-0.42491 -2.379649,-0.410943 -2.699748,-0.275188 -5.416767,-0.386323 -8.129993,-0.391125 z m -14.169456,5.293713 c -0.0854,0.22723 -0.1438,0.008 0,0 z m 27.693451,1.71872 c -0.341268,0.3537 -0.02949,-0.023 0,0 z m 1.638591,1.56838 c -0.522909,0.52053 0.134482,-0.15876 0,0 z m 3.898376,0.11563 c -0.338331,0.33551 0.283826,-0.29872 0,0 z m -14.788565,0.20515 c -0.220485,0.27646 -0.122862,0.0831 0,0 z m 23.920362,0.13389 c -0.08536,0.22723 -0.14379,0.008 0,0 z m -28.048947,0.11641 c -0.187378,0.25332 -0.106976,0.0466 0,0 z m -27.008578,0.0172 c -0.0854,0.22723 -0.14379,0.008 0,0 z m 24.722433,0.93545 c -0.08536,0.22722 -0.143791,0.008 0,0 z m 10.557147,0 c -0.08536,0.22722 -0.14379,0.008 0,0 z m 19.295866,1.37993 c -0.202906,0.22139 -0.192537,0.12764 0,0 z m -36.872236,0.0389 c -0.2346,0.244 -0.1494,0.0958 0,0 z m 28.133515,1.78841 c -0.08536,0.22723 -0.143788,0.008 0,0 z m 6.734198,0.0436 c -0.202906,0.22139 -0.192534,0.12764 0,0 z m -23.251141,0.0887 c 1.258322,0.12955 2.0784,1.27352 2.478247,2.38011 0.352425,0.31591 0.163546,0.95771 0.579953,1.15677 0.561062,1.64035 1.464077,3.16166 2.059403,4.7961 1.744779,3.90572 3.452111,7.80454 5.206203,11.70806 0.415367,1.01832 0.838624,2.04934 1.352532,3.01722 0.866116,0.64189 2.080712,0.231 3.04828,0.64416 5.326854,0.62332 10.653731,1.3688 15.974314,2.00661 1.59974,0.4794 3.347117,0.41133 4.925954,0.88194 0.79452,0.22195 1.433566,0.85282 1.906905,1.52349 0.196342,0.75019 0.364162,1.72726 -0.425079,2.18037 -2.282989,2.32309 -4.845426,4.35884 -7.141205,6.66536 -0.308544,0.38793 -0.905018,0.63346 -1.253609,1.05394 -2.989874,2.69217 -5.958366,5.40486 -8.943612,8.10239 -0.849286,0.44353 -0.891019,1.16335 -0.534546,1.97339 1.311717,5.2245 2.351609,10.50885 3.590615,15.75091 0.433316,2.26314 1.113904,4.50189 1.30977,6.7982 -0.311378,1.35358 -1.643108,2.60482 -3.108053,2.30076 -1.173974,-0.19673 -2.092835,-1.05219 -3.157122,-1.52949 -0.7123,-0.57552 -1.630275,-0.88514 -2.404379,-1.40316 -3.634534,-2.07415 -7.21981,-4.24639 -10.8145,-6.38733 -0.451612,-0.39435 -1.10739,-0.52632 -1.490864,-0.94092 -0.274484,0.004 -0.305631,-0.35408 -0.620408,-0.31791 -0.24022,-0.37858 -0.834644,-0.37919 -1.077952,-0.75117 -0.63455,-0.10565 -1.140225,-0.96554 -1.817643,-0.75039 -0.04641,0.32884 -0.546957,0.11726 -0.627194,0.44084 -0.277276,-0.028 -0.438814,0.14684 -0.594048,0.29676 -0.292918,0.0181 -0.329936,0.34118 -0.647033,0.338 -0.26905,0.37432 -0.845908,0.40984 -1.136418,0.76945 -1.493141,0.74935 -2.887813,1.69676 -4.353053,2.50278 -3.25075,1.84493 -6.49628,3.70975 -9.7629,5.53175 -0.24879,0.0349 -0.40147,0.18555 -0.51914,0.34896 -1.50272,0.69431 -2.87292,2.15578 -4.67409,1.8414 -0.46079,-0.0923 -0.74103,-0.595 -1.14659,-0.83053 -1.15891,-0.98283 -0.63023,-2.66949 -0.40065,-3.93413 0.26328,-1.33431 0.74428,-2.71364 0.89682,-4.0234 0.42215,-0.45423 0.28954,-1.23006 0.53062,-1.79206 0.4205,-2.0582 1.00278,-4.08186 1.4417,-6.14095 0.52928,-2.22059 1.08713,-4.4266 1.65723,-6.63351 0.18535,-0.98569 0.64206,-1.99923 0.52461,-3.00723 -0.14752,-0.12467 -0.4255,0.13622 -0.37324,-0.21063 -1.20286,-0.98545 -2.36802,-2.10351 -3.58125,-3.10962 -2.21135,-1.7943 -4.30877,-3.74968 -6.46745,-5.61981 -2.12926,-1.98629 -4.43287,-3.7685 -6.5669,-5.74672 -0.60621,-0.40625 -1.25069,-0.95544 -1.54411,-1.62762 -0.43455,-0.60207 -0.26529,-1.48373 -0.0149,-2.13816 0.36162,-0.56909 0.88529,-1.04395 1.52166,-1.24239 0.9902,-0.4067 2.13527,-0.47917 3.19001,-0.68252 1.61128,-0.22869 3.23322,-0.43989 4.82621,-0.72721 5.16818,-0.57597 10.34914,-1.11343 15.47949,-1.96637 0.74611,-0.44106 0.80965,-1.51369 1.27475,-2.18644 0.93464,-2.07232 1.89061,-4.13718 2.83948,-6.20019 -0.0423,-0.31876 0.36833,-0.30339 0.3226,-0.63789 1.67512,-3.67044 3.304457,-7.37048 5.061925,-11.00292 0.692661,-1.12193 1.005575,-2.69376 2.349585,-3.2331 0.267094,-0.12279 0.551656,-0.22989 0.84905,-0.23595 z m 15.377655,1.01923 c -0.234609,0.244 -0.149405,0.0958 0,0 z m -34.365537,0.0746 c 0.0253,0.1533 -0.18007,0.11182 0,0 z m 24.856065,0.26727 c 0.02532,0.15329 -0.180072,0.11182 0,0 z m 3.398031,0.63111 c -0.371615,0.38409 -0.182041,0.15405 0,0 z m -43.898496,0.12633 c -0.097,0.0839 0.0524,-0.0492 0,0 z m 67.634587,0.72533 c -0.223142,0.22297 -0.07654,0.0551 0,0 z m -24.728694,0.12085 c 0.02532,0.15329 -0.180075,0.11181 0,0 z m -14.850953,0.0556 c -0.22203,0.20382 -0.1209,0.0479 0,0 z m 35.859277,0.004 c -0.09294,0.0648 -0.12314,0.0331 0,0 z m 0.865232,0.53115 c -0.2126,0.21571 -0.452887,0.44969 -0.6747,0.62615 0.19101,-0.21245 0.535635,-0.51936 0.6747,-0.62615 z m 0.0462,0.55829 c -0.03952,0.24716 -0.375571,0.28542 -0.08143,0.0564 -0.01299,0.0677 0.09749,-0.1418 0.08143,-0.0564 z m -60.876899,0.27379 c -0.17729,0.23056 -0.17512,0.13721 0,0 z m 0.96285,0.95867 c -0.0854,0.22723 -0.14379,0.008 0,0 z m 50.781211,1.06908 c -0.08536,0.22723 -0.14379,0.008 0,0 z m -59.333841,0.26727 c -0.0854,0.22723 -0.14379,0.008 0,0 z m 2.22351,1.83487 c -0.12536,0.15245 -0.45492,0.41838 -0.11981,0.0924 0.005,-0.0108 0.23877,-0.21994 0.11981,-0.0924 z m 74.947177,0.11849 c -0.234609,0.244 -0.149405,0.0958 0,0 z m -7.193568,1.78815 c 0.02331,0.0782 -0.349645,0.0416 0,0 z m -67.763529,0.0227 c -0.10951,0.15154 -0.23092,0.16775 0,0 z m 73.62075,0.06 c -0.234609,0.24399 -0.149405,0.0958 0,0 z m -7.905853,1.14372 c 0.02532,0.1533 -0.180073,0.11181 0,0 z m -13.159372,0.38446 c -0.01299,0.3092 -0.146452,0.12873 0,0 z m 13.342858,0.77884 c -0.340897,0.3267 -0.522814,0.43263 -0.04855,0.0305 -0.03493,0.0298 0.230498,-0.19462 0.04855,-0.0305 z m 12.839118,0.13677 c -0.13329,0.1637 -0.55416,0.47653 -0.174877,0.13755 7.94e-4,-10e-4 0.306343,-0.26952 0.174877,-0.13755 z m 2.169736,0.68096 c -0.08535,0.22723 -0.143787,0.008 0,0 z m -23.734527,0.0436 c -0.202906,0.22139 -0.192534,0.12764 0,0 z m 14.724883,0.68932 c 0.350089,0.0827 -0.381561,0.0686 0,0 z m -0.913781,0.0553 c -0.371615,0.38409 -0.182041,0.15405 0,0 z m 3.487814,0.28789 c -0.01299,0.3092 -0.146452,0.12873 0,0 z m -28.75444,0.11536 c -0.130469,0.2196 -0.189579,0.10989 0,0 z m 3.026095,0.0347 c 0.02532,0.1533 -0.180072,0.11182 0,0 z m 19.842152,0.88873 c -0.177287,0.23057 -0.175112,0.13721 0,0 z m 6.441876,1.22594 c -0.08536,0.22723 -0.14379,0.008 0,0 z m -16.929594,0.8253 c 0.02532,0.15329 -0.180073,0.11181 0,0 z m 22.409663,0.24404 c 0.174038,0.17452 -0.396947,0.12641 -0.02479,2.7e-4 l 0.01307,-0.001 z m -60.073268,0.34949 c -0.23461,0.244 -0.1494,0.0958 0,0 z m 53.25685,0.9866 c -0.08535,0.22723 -0.143788,0.008 0,0 z m 1.536017,1.14894 c -0.522909,0.52053 0.134483,-0.15875 0,0 z m -5.288229,0.4552 c 0.165586,0.12416 -0.05104,0.10042 0,0 z m 3.949271,0.082 c -0.234609,0.244 -0.149405,0.0958 0,0 z m 0.53454,0.26727 c -0.234608,0.244 -0.149407,0.0958 0,0 z m -57.617989,2.48007 c 0.0253,0.1533 -0.18007,0.11182 0,0 z m -29.23417,3.87411 c -0.12396,0.15868 -0.42622,0.29402 -0.1,0.0569 0.007,-0.004 0.18136,-0.13611 0.1,-0.0569 z m 88.794561,3.60683 c -0.271764,0.26875 0.182914,-0.24441 0,0 z m -3.410297,0.46042 c -0.356648,0.36016 0.01288,-0.045 0,0 z m -85.724094,0.34139 c -0.27176,0.26875 0.18292,-0.24441 0,0 z m 5.94205,0.59614 c -0.23461,0.24399 -0.14941,0.0958 0,0 z m 81.118391,0.66608 c -0.356648,0.36017 0.01288,-0.045 0,0 z m 6.081689,2.1914 c -0.08536,0.22723 -0.143791,0.008 0,0 z m -91.09689,0.4244 c 0.0253,0.15329 -0.18007,0.11181 0,0 z m 6.30145,3.76552 c 0.25202,0.11705 -0.0573,0.10018 0,0 z m 83.726362,0.0864 c -0.08536,0.22722 -0.143791,0.008 0,0 z m -90.952812,0.0436 c -0.20291,0.22139 -0.19254,0.12763 0,0 z m 6.81537,0.26726 c -0.20291,0.22139 -0.19254,0.12764 0,0 z m 89.391217,0.11354 c 0.02532,0.15329 -0.180073,0.11181 0,0 z m -19.890959,0.55829 c 0.252021,0.11705 -0.05736,0.10018 0,0 z m -0.267269,0.26727 c 0.252018,0.11705 -0.05736,0.10018 0,0 z m 20.836842,0.66452 c -0.202906,0.22139 -0.192537,0.12764 0,0 z m -95.692931,0.38081 c 0.0253,0.15329 -0.18007,0.11181 0,0 z m 95.183449,0.0412 c 0.350092,0.0828 -0.38156,0.0686 0,0 z m -82.663809,0.0689 c -0.0854,0.22723 -0.14379,0.008 0,0 z m 4.72238,0.0475 c -0.0216,0.20752 -0.28698,0.20567 0,0 z m 70.309373,0.13337 c 0.252018,0.11705 -0.05736,0.10017 0,0 z m -79.165813,0.0718 c 0.0139,0.21463 -0.35942,0.38566 -0.11589,0.11667 -0.0492,0.0723 0.13136,-0.15454 0.11589,-0.11667 z m 62.941975,0 c 0.01392,0.21463 -0.359417,0.38566 -0.115884,0.11667 -0.0492,0.0723 0.131352,-0.15454 0.115884,-0.11667 z m 17.363909,0.28188 c -0.08536,0.22723 -0.143791,0.008 0,0 z m -83.884524,0.44293 c -0.18657,0.19357 0.086,-0.10306 0,0 z m 68.674694,0.0371 c -0.222035,0.20382 -0.120912,0.0479 0,0 z m 20.17885,0.26727 c -0.22297,0.20359 -0.118589,0.0473 0,0 z m -86.352334,0.0543 c -0.22048,0.27647 -0.12286,0.0831 0,0 z m 81.746631,0.0955 c -0.08494,0.12576 -0.62988,0.60126 -0.255002,0.21637 0.04995,-0.0515 0.32993,-0.31522 0.255002,-0.21637 z m 6.236462,0.2691 c -0.286263,0.30325 -0.0572,0.0277 0,0 z m -9.805709,0.32468 c -0.271767,0.26875 0.182914,-0.2444 0,0 z m -5.322163,0.0582 c -0.222033,0.20381 -0.120912,0.0479 0,0 z m 8.260821,0.0545 c -0.08535,0.22723 -0.143788,0.008 0,0 z m -82.941772,0.0535 c -0.28604,0.35716 -0.24602,0.13932 0,0 z m 0.66713,0.0916 c -0.0898,0.21046 -0.55811,0.4135 -0.15112,0.0903 0.0363,-0.0209 0.10817,-0.10309 0.15112,-0.0903 z m 69.445967,1.45824 c -0.220485,0.27647 -0.122861,0.0831 0,0 z m -69.134067,0.32938 c -0.33833,0.33552 0.28383,-0.29871 0,0 z m 84.491362,0.0723 c 0.16559,0.12417 -0.05103,0.10043 0,0 z m 4.15312,0.26675 c -0.08536,0.22723 -0.143791,0.008 0,0 z m -21.515197,0.26727 c -0.08536,0.22723 -0.14379,0.008 0,0 z m 11.893494,0 c -0.08536,0.22723 -0.14379,0.008 0,0 z m 7.483547,0 c -0.08536,0.22723 -0.143791,0.008 0,0 z m -19.777686,0.40064 c -0.220483,0.27647 -0.122859,0.0831 0,0 z m 16.30318,0.1339 c -0.08535,0.22722 -0.143788,0.008 0,0 z m -0.754565,0.75822 c -0.236665,0.27073 -0.307941,0.28426 0,0 z m -12.875919,0.17696 c -0.220485,0.27647 -0.122862,0.0831 0,0 z m 9.354172,0.1339 c -0.08535,0.22722 -0.143788,0.008 0,0 z m -72.254388,0.15712 c 0.0253,0.15329 -0.18007,0.11181 0,0 z m 62.287899,0.32521 c -0.140639,0.17551 -0.326914,0.30276 -0.06343,0.0488 -0.01945,0.021 0.147627,-0.14278 0.06343,-0.0488 z m 12.836244,0.40195 c -0.234608,0.244 -0.149407,0.0958 0,0 z m -11.914896,0.0747 c 0.02532,0.15329 -0.180073,0.11181 0,0 z m 0.291282,0.45728 c -0.522909,0.52053 0.134483,-0.15876 0,0 z m -54.258329,0.26988 c -0.23461,0.244 -0.1494,0.0958 0,0 z m 65.832874,0.56847 c -0.187378,0.25333 -0.106977,0.0466 0,0 z m -63.181584,0.0407 c 0.0253,0.15329 -0.18007,0.11181 0,0 z m 63.764411,0.0238 c 0.252018,0.11705 -0.05736,0.10017 0,0 z m -2.848616,0.16417 c -0.26984,0.23517 -0.268353,0.12194 0.02714,-0.0287 z m 3.3333,0.13442 c -0.08418,0.10482 -0.484422,0.39105 -0.142509,0.10336 0.02748,-0.0217 0.267009,-0.2243 0.142509,-0.10336 z m 0.587786,0.13494 c -0.52291,0.52052 0.134482,-0.15876 0,0 z m -4.546193,0.26988 c -0.234609,0.244 -0.149405,0.0958 0,0 z m -68.943538,1.13381 c -0.33354,0.34598 -0.11535,0.0785 0,0 z m 61.282247,0.31163 c -0.474398,0.46824 -0.615249,0.55948 -0.05612,0.0431 0.0084,-0.005 0.291489,-0.27143 0.05612,-0.0431 z m 4.03175,-0.0345 c 0.02532,0.15329 -0.180073,0.11181 0,0 z m 7.57542,0.24352 c -0.220482,0.27647 -0.122861,0.0831 0,0 z m 7.038272,0.25631 c -0.130466,0.21959 -0.18958,0.10988 0,0 z m -19.959082,0.0347 c 0.02532,0.15329 -0.180073,0.11181 0,0 z m 16.84842,0.15373 c -0.202909,0.22139 -0.192537,0.12764 0,0 z m -79.832157,0.35706 c -0.22048,0.27647 -0.12286,0.0831 0,0 z m 74.754036,0.17748 c -0.202909,0.22139 -0.192537,0.12764 0,0 z m 1.811636,0.31399 c -0.325001,0.35433 -0.124976,0.0952 0,0 z m 1.251525,0.33409 c 0.02532,0.15329 -0.180076,0.11181 0,0 z m 2.037929,0.13259 c -0.109509,0.15154 -0.230923,0.16774 0,0 z m -16.378611,0.11093 c -0.220485,0.27647 -0.122861,0.0831 0,0 z m 12.428816,5.2e-4 c 0.174037,0.17452 -0.396947,0.12641 -0.02479,2.7e-4 l 0.01307,-0.001 z m 5.778399,0.38316 c -0.109606,0.18887 -0.55195,0.61718 -0.167603,0.19123 0.01953,-0.0177 0.177911,-0.21142 0.167603,-0.19123 z m -2.332344,-0.006 c -0.17729,0.23056 -0.175115,0.13721 0,0 z m -75.567856,0.71489 c 0.0253,0.15329 -0.18007,0.11181 0,0 z m 67.752831,0.26727 c 0.02532,0.15329 -0.180072,0.11181 0,0 z m 10.107433,0.46772 c -0.325001,0.35433 -0.124976,0.0952 0,0 z m -0.839132,0.16574 c -0.130466,0.21959 -0.189579,0.10988 0,0 z m -7.316242,0.14538 c 0.16559,0.12417 -0.05104,0.10042 0,0 z m -71.86053,0.88036 c -0.22203,0.20382 -0.12091,0.0479 0,0 z m 71.872016,0.99026 c 0.174037,0.17452 -0.396949,0.12641 -0.02479,2.6e-4 l 0.01307,-0.001 z m 0.687226,0.0715 c -0.159925,0.18218 -0.857666,0.75971 -0.352097,0.29024 0.08735,-0.0806 0.30526,-0.26961 0.352097,-0.29024 z m -1.623714,0.0619 c -0.08536,0.22723 -0.14379,0.008 0,0 z m 2.050979,0.22995 c -0.41887,0.4365 -0.107887,0.0827 0,0 z m -3.992076,0.78797 c -0.234608,0.244 -0.149407,0.0958 0,0 z m 3.992076,0.54838 c -0.41887,0.4365 -0.107887,0.0827 0,0 z m 4.474416,0.15947 c -0.654976,0.71452 0.0021,-0.0547 0,0 z m -0.999911,0.1078 c -0.418872,0.4365 -0.107889,0.0827 0,0 z m -0.785365,0.0198 c -0.452758,0.41703 -0.883774,0.99515 -1.218896,1.43814 -0.429717,0.20441 -0.741852,0.58431 -1.087347,0.89995 0.740915,-0.79687 1.541158,-1.60491 2.306243,-2.33809 z m -2.511917,0.40821 c -0.102894,0.14034 -0.651775,0.5708 -0.276143,0.1968 0.06108,-0.0555 0.303586,-0.26033 0.276143,-0.1968 z m 1.375762,0.0506 c 0.04517,0.2351 -0.418145,0.13032 -0.469813,0.4304 -0.0041,0.32665 -0.403727,0.33084 -0.529055,0.5241 0.294322,-0.33323 0.63787,-0.77427 0.998868,-0.9545 z m -4.931439,0.0397 c -0.281705,0.28247 -0.631836,0.4673 -0.11484,0.0525 0.0077,-0.006 0.256675,-0.18032 0.11484,-0.0525 z m 4.900901,1.43214 c -0.305721,0.32734 -0.441376,0.41938 -0.05507,0.041 0.0019,-8e-4 0.283951,-0.278 0.05507,-0.041 z m -2.863231,-0.0188 c 0.02532,0.1533 -0.180073,0.11181 0,0 z m -43.11809,0.11119 c 0.09831,0.19905 -0.393708,0.0609 -0.03132,-0.002 z m -0.578389,0.29859 c -0.155123,0.14362 -0.38308,0.23905 -0.10127,0.0425 0.0047,-0.005 0.161081,-0.0914 0.10127,-0.0425 z m 43.328983,-0.01 c -0.109508,0.15153 -0.230923,0.16774 0,0 z m 4.213932,0.0585 c -0.175454,0.18611 -0.948042,0.94193 -0.683419,0.66884 0.165407,-0.16914 0.681133,-0.67971 0.683419,-0.66884 z m -0.906471,0.0762 c 0.02532,0.15329 -0.180073,0.11181 0,0 z m -43.410679,0.0238 c 0.252021,0.11705 -0.05735,0.10017 0,0 z m 3.90438,1.14972 c -0.54586,0.55189 0.208534,-0.23483 0,0 z m -40.866919,0.28998 c -0.0461,0.33242 -0.29749,0.26849 0,0 z m 77.577326,0.0266 c -0.202906,0.22139 -0.192534,0.12764 0,0 z m -41.41581,0.0389 c -0.234612,0.244 -0.149408,0.0958 0,0 z m -32.473256,0.0621 c -0.5423,0.4659 -0.24776,0.16481 0,0 z m 61.58423,0.0125 c 0.02532,0.15329 -0.180073,0.11181 0,0 z m -64.8113,0.20723 c -0.0572,0.27605 -0.31177,0.15088 0,0 z m 79.130841,0.0838 c 0.252018,0.11705 -0.05736,0.10017 0,0 z m -11.747072,0.10884 c -0.109508,0.15153 -0.230923,0.16774 0,0 z m -65.781719,0.13467 c 0.0253,0.1533 -0.18007,0.11182 0,0 z m 68.821909,0 c 0.02532,0.1533 -0.180073,0.11182 0,0 z m -35.389722,0.0569 c -0.356648,0.36016 0.01288,-0.045 0,0 z m 43.62627,0.14355 c -0.325004,0.35433 -0.124979,0.0952 0,0 z m -79.207567,0.0248 c -0.26999,0.26535 -0.10966,0.0794 0,0 z m -2.73117,0.66348 c -0.17728,0.23056 -0.17511,0.13721 0,0 z m 40.733032,0.2195 c -0.194803,0.21332 -0.444582,0.41356 0,0 z m -30.473952,0.48547 c -0.33354,0.34598 -0.11536,0.0785 0,0 z m -3.68357,0.38733 c -0.0854,0.22723 -0.14378,0.008 0,0 z m 34.076871,0 c -0.08535,0.22723 -0.143788,0.008 0,0 z m -30.111931,0.12242 c -0.13047,0.21959 -0.18958,0.10988 0,0 z m -12.74281,0.0347 c 0.0253,0.15329 -0.18007,0.11181 0,0 z m 74.550454,0.0206 c -0.106418,0.20663 -0.494922,0.45817 -0.178004,0.10858 0.05324,-0.044 0.114811,-0.0872 0.178004,-0.10858 z m -61.454244,0.24665 c 0.0253,0.15329 -0.18007,0.11181 0,0 z m 65.090571,0.15373 c -0.202906,0.22139 -0.192537,0.12764 0,0 z m -2.351659,0.20046 c -0.177289,0.23056 -0.175112,0.13721 0,0 z m -0.81225,0.28345 c -0.331821,0.36901 -0.116085,0.068 0,0 z m 1.603619,0.26727 c -0.331825,0.36901 -0.116089,0.068 0,0 z m -65.984521,0.0974 c -0.325,0.35433 -0.12497,0.0952 0,0 z m -1.9732,0.12241 c -0.22203,0.20382 -0.12091,0.0479 0,0 z m 70.587089,0.0981 c -0.202906,0.22139 -0.192537,0.12764 0,0 z m 1.336347,0 c -0.202906,0.22139 -0.192537,0.12764 0,0 z m -38.164209,0.0308 c -0.101965,0.33506 -0.374374,0.12675 0,0 z m -30.185017,0.2858 c -0.54733,0.55661 -0.13388,0.11323 0,0 z m 65.218208,0.041 c 0.204848,0.20383 -0.265126,0.10597 0,0 z m 2.606659,0.047 c 0.252021,0.11705 -0.05736,0.10018 0,0 z m -1.281277,0.10649 c -0.177294,0.26473 -0.253116,0.087 0.0055,-0.0104 z m -0.743865,0.003 c 0.02532,0.15329 -0.180073,0.11181 0,0 z m -40.354564,0.55646 c -0.134824,0.16944 -0.569171,0.48903 -0.2075,0.15582 0.01672,-0.0133 0.274389,-0.23401 0.2075,-0.15582 z m -2.334181,0.17331 c -0.45775,0.41815 -0.30938,0.20661 0.054,-0.0679 0.1823,-0.14207 0.0276,-0.006 -0.054,0.0679 z m 36.808817,-0.0616 c 0.02532,0.15329 -0.180073,0.11181 0,0 z m -1.671217,0.019 c -0.16561,0.17754 -0.551614,0.44288 -0.158692,0.11015 0.02666,-0.0197 0.175245,-0.14625 0.158692,-0.11015 z m 8.818068,0.0679 c -0.17729,0.23057 -0.175115,0.13721 0,0 z m -8.329726,0.14225 c -0.145198,0.19383 -0.386215,0.51099 -0.54759,0.60449 0.13294,-0.20784 0.413491,-0.54946 0.54759,-0.60449 z m 8.791963,0.2323 c -0.10963,0.15526 -0.568409,0.60039 -0.541324,0.52436 0.159573,-0.19385 0.342136,-0.3743 0.541324,-0.52436 z m 1.883416,0.41317 c -0.41887,0.4365 -0.107887,0.0827 0,0 z m -68.975381,0.172 c 0.0376,0.22269 -0.34636,0.19878 -0.0365,0.006 0.0115,-0.004 0.0241,-0.008 0.0365,-0.006 z m 60.753972,0.38342 c -0.354806,0.23769 -0.04151,-0.0168 0,0 z m 4.608833,0.0399 c 0.02532,0.15329 -0.180073,0.11181 0,0 z m -48.952345,0.11014 c -0.0854,0.22723 -0.14379,0.008 0,0 z m 50.264681,0.052 c -0.594757,0.58676 -1.210101,1.16214 -1.815293,1.74247 0.574953,-0.59259 1.23344,-1.2233 1.815293,-1.74247 z m -0.871495,0.11771 c -0.115046,0.13569 -0.650817,0.62489 -0.544198,0.47372 0.167439,-0.15537 0.474522,-0.40798 0.544198,-0.47372 z m 1.869318,0.21089 c -0.06478,0.10233 -0.583692,0.50336 -0.24665,0.18427 0.03399,-0.0391 0.325012,-0.29641 0.24665,-0.18427 z m -3.122927,0.2691 c -0.269984,0.26534 -0.109662,0.0794 0,0 z m -3.37715,0.51 c -0.153334,0.16186 -0.478504,0.37388 -0.179311,0.11511 0.01992,-0.019 0.253389,-0.18837 0.179311,-0.11511 z m -31.870065,-0.008 c -0.234608,0.24399 -0.149405,0.0958 0,0 z m 35.413214,0 c -0.234611,0.24399 -0.149407,0.0958 0,0 z m 2.337824,0.3795 c -0.144481,0.20945 -0.331935,0.38906 -0.540282,0.53428 0.15121,-0.1815 0.397087,-0.43072 0.540282,-0.53428 z m -52.27103,0.089 c -0.18576,0.23766 -0.11101,0.14268 0,0 z m 52.741623,0.19732 c -0.96148,0.9582 0.44114,-0.45357 0,0 z m -5.67791,-0.0804 c -0.220485,0.27647 -0.122862,0.0831 0,0 z m 2.164516,0.13494 c 0.03762,0.2227 -0.346366,0.19878 -0.03654,0.006 0.01151,-0.004 0.02408,-0.008 0.03654,-0.006 z m -46.866389,0.0788 c -0.52291,0.52053 0.13448,-0.15875 0,0 z m 12.160764,0 c -0.52291,0.52053 0.134482,-0.15875 0,0 z m 19.972914,0.007 c -0.348994,0.40818 -0.540438,0.41633 -0.07987,0.0439 -0.0083,0.0109 0.171804,-0.14042 0.07987,-0.0439 z m -51.374218,0.0851 c -0.0694,0.12216 0.0974,-0.22247 0,0 z m 39.90225,-0.0556 c -0.187381,0.25333 -0.106979,0.0466 0,0 z m -6.48181,0.0799 c -0.194803,0.21331 -0.444582,0.41356 0,0 z m -17.65702,0.15347 c -0.23461,0.244 -0.1494,0.0958 0,0 z m 3.97668,0.0326 c -0.26998,0.26534 -0.10966,0.0794 0,0 z m 12.160766,0 c -0.269983,0.26534 -0.109659,0.0794 0,0 z m 31.507006,0.0183 c -0.220482,0.27647 -0.122862,0.0831 0,0 z m -45.503422,0.2135 c -0.72276,0.72535 0.31229,-0.33095 0,0 z m 44.435911,0.11275 c -0.524487,0.50018 -0.487897,0.42813 -0.01879,8e-4 0.213448,-0.19357 0.347406,-0.30253 0.01879,-8e-4 z m 3.937005,-0.10988 c -0.234609,0.244 -0.149405,0.0958 0,0 z m -42.836996,0.45258 c 0.16559,0.12417 -0.051,0.10042 0,0 z m 9.0274,0.082 c -0.234608,0.244 -0.149405,0.0958 0,0 z m -12.29231,0.13155 c -0.35665,0.36016 0.0129,-0.045 0,0 z m 1.97868,0.1981 c -0.17463,0.20658 -0.96298,0.91245 -0.4826,0.43431 0.15071,-0.14882 0.32515,-0.31386 0.4826,-0.43431 z m 43.054148,0.20489 c -0.234609,0.244 -0.149405,0.0958 0,0 z m 1.769877,0.2336 c -0.292566,0.33534 -0.600795,0.66588 -0.918477,0.97146 0.320204,-0.36621 0.644099,-0.73066 0.997823,-1.06516 z m -35.26496,-0.007 c -0.09283,0.12969 -0.727239,0.78837 -0.329912,0.34505 0.02278,-0.0217 0.481537,-0.52786 0.329912,-0.34505 z m 16.994584,-0.042 c -0.08536,0.22722 -0.14379,0.008 0,0 z m -38.065549,0.0778 c -0.26985,0.23516 -0.26836,0.12194 0.0271,-0.0287 z m 37.061982,0.13624 c -0.356648,0.36016 0.01288,-0.045 0,0 z m 9.745678,0.0927 c -0.15654,0.20139 -0.446439,0.26394 -0.117189,0.0365 0.024,-0.0164 0.195456,-0.11732 0.117189,-0.0365 z m -39.06285,0.077 c -0.18738,0.25333 -0.10698,0.0466 0,0 z m 19.959868,0.0645 c 0.252018,0.11705 -0.05736,0.10018 0,0 z m -40.952268,0.15191 c -0.10809,0.15297 -0.82945,0.83659 -0.41187,0.38028 0.0631,-0.0783 0.54198,-0.55901 0.41187,-0.38028 z m 5.39524,-0.0219 c -0.20291,0.22139 -0.19254,0.12764 0,0 z m 7.09569,0.17044 c -0.35665,0.36016 0.0129,-0.045 0,0 z m 29.074179,0.0548 c -0.125156,0.16007 -0.629878,0.61725 -0.665565,0.51966 0.240663,-0.10035 0.635098,-0.52134 0.665565,-0.51966 z m 27.940627,0.12189 c -0.455795,0.47371 -0.602631,0.58287 -0.05429,0.041 0.11739,-0.11103 0.305686,-0.30391 0.05429,-0.041 z m -44.743896,0.0337 c 0.0253,0.15329 -0.18007,0.11181 0,0 z m 15.607604,0.22655 c -0.187381,0.25333 -0.106979,0.0466 0,0 z m 9.755335,0 c -0.187378,0.25333 -0.106976,0.0466 0,0 z m 13.445694,0.13076 c -0.428138,0.40407 -0.345485,0.27378 0.0475,-0.053 l 0.03706,-0.03 z m 1.559507,0.0637 c -0.202907,0.22139 -0.192538,0.12764 0,0 z m -46.29348,0.0428 c -0.36081,0.41714 -0.43862,0.34121 -0.0183,-0.0107 0.0197,-0.0135 0.12027,-0.0831 0.0183,0.0107 z m 45.237975,0.12684 c -1.101252,1.11175 0.403616,-0.42343 0,0 z m -51.501585,-0.0846 c -0.29761,0.30468 -0.0763,0.073 0,0 z m 54.85185,0.0185 c -0.333544,0.34598 -0.115358,0.0785 0,0 z m -41.62306,0.33226 c -0.0842,0.10482 -0.48442,0.39104 -0.14251,0.10335 0.0275,-0.0217 0.26701,-0.22429 0.14251,-0.10335 z m 36.442103,0.0318 c -0.177289,0.23057 -0.175114,0.13721 0,0 z m -53.751973,0.0457 c -0.10951,0.15154 -0.23093,0.16775 0,0 z m 53.030031,0.0211 c -0.202906,0.22139 -0.192537,0.12764 0,0 z m 3.013567,0.0439 c -0.103719,0.16543 -0.656463,0.58152 -0.306157,0.22369 0.03336,-0.0389 0.403296,-0.36268 0.306157,-0.22369 z m -28.825433,0.22526 c -0.229751,0.2411 -0.497554,0.50882 -0.725075,0.71124 0.137753,-0.15747 0.876295,-0.89197 0.725075,-0.71124 z m 26.891908,0.0371 c -0.234611,0.244 -0.149407,0.0958 0,0 z m 4.847913,0 c -0.222835,0.22227 -0.45221,0.35476 -0.07517,0.0486 -0.05908,0.0496 0.138145,-0.10813 0.07517,-0.0486 z m -13.554792,0.0663 c -0.06909,0.12941 -0.511863,0.52565 -0.221856,0.17722 0.04818,-0.0488 0.24365,-0.2218 0.221856,-0.17722 z m -45.837514,0.008 c 0.0253,0.15329 -0.18007,0.11181 0,0 z m 40.113664,0.0587 c -0.153159,0.15223 0.124177,-0.13049 0,0 z m -38.846744,0.0282 c -0.17728,0.23056 -0.17511,0.13721 0,0 z m 2.09248,0.0423 c -0.26446,0.31299 -0.25855,0.1533 0.0363,-0.0467 z m 45.294098,0.0245 c -0.202906,0.22139 -0.192534,0.12763 0,0 z m 6.272483,0.12397 c -0.146026,0.15885 -0.479843,0.51482 -0.598744,0.53454 0.133635,-0.16266 0.635336,-0.62572 0.598744,-0.53454 z m -26.83579,0.004 c -0.06943,0.12216 0.09737,-0.22246 0,0 z m -4.704102,-0.0149 c 0.02532,0.15329 -0.180072,0.11181 0,0 z m 34.878674,0 c 0.02532,0.15329 -0.180073,0.11181 0,0 z m -40.858833,0.13259 c -0.10951,0.15154 -0.23092,0.16774 0,0 z m -22.47361,0.0211 c -0.2029,0.22139 -0.19254,0.12764 0,0 z m 60.477303,0.0467 c -0.325001,0.35433 -0.124976,0.0952 0,0 z m -8.737676,0.0569 c -0.333542,0.34598 -0.115359,0.0785 0,0 z m 6.405594,0.1446 c -0.335166,0.35629 -0.518192,0.49036 -0.07073,0.0621 l 0.09422,-0.0877 z m 2.897944,-0.009 c 0.183316,0.12246 0.150389,0.2177 0,0 z m -13.415417,0.22864 c -0.17729,0.23057 -0.175112,0.13721 0,0 z m -12.569235,0.15347 c -0.266832,0.29164 -0.203838,0.15673 0.02635,-0.0305 z m 16.948385,0.017 c -0.333544,0.34598 -0.115361,0.0785 0,0 z m 7.015824,0.10492 c -1.35e-4,0.27719 -0.38725,0.36108 -0.117454,0.0624 0.02304,-0.0156 0.189085,-0.20523 0.117454,-0.0624 z m -36.624542,0.0151 c -0.0854,0.22723 -0.14379,0.008 0,0 z m 25.559479,0.17278 c -0.25464,0.25478 -1.022834,0.99779 -0.988689,0.9485 0.265982,-0.26466 1.020767,-0.99893 1.038791,-0.9986 z m -16.676155,-0.0903 c -0.234612,0.24399 -0.149408,0.0958 0,0 z m 31.473594,0.0746 c -0.08309,0.18038 -0.569883,0.64864 -0.238818,0.25266 0.06807,-0.0835 0.176379,-0.21134 0.238818,-0.25266 z m -38.043108,0 c 0.0253,0.1533 -0.18007,0.11181 0,0 z m 26.163187,0.0551 c -0.08418,0.10483 -0.484423,0.39105 -0.14251,0.10336 0.02748,-0.0217 0.26701,-0.22429 0.14251,-0.10336 z m -18.25811,-0.0313 c 0.252019,0.11705 -0.05736,0.10017 0,0 z m -32.884337,0.12998 c -0.2029,0.22139 -0.19253,0.12763 0,0 z m 32.671618,0.17409 c -0.289473,0.0727 0.02588,0.0171 0,0 z m -27.794728,0.14433 c -0.17588,0.12929 -0.50489,0.49503 -0.55072,0.53715 0.13805,-0.20397 0.39722,-0.44009 0.55072,-0.53715 z m -0.76501,0.0355 c -0.0812,0.15861 -0.57843,0.64647 -0.57395,0.52462 0.16465,-0.19952 0.37071,-0.37894 0.57395,-0.52462 z m 28.224606,0.0446 c -0.06448,0.13358 -0.02278,0.0503 0,0 z m -29.119066,0.006 c 0.25202,0.11705 -0.0574,0.10017 0,0 z m 40.080248,0.12998 c -0.202906,0.22139 -0.192537,0.12764 0,0 z m 3.421782,0.0347 c -0.471903,0.43829 -0.344128,0.24245 0,0 z m 3.671824,0.004 c -0.234609,0.244 -0.149405,0.0958 0,0 z m 0.671306,0.20097 c -0.131786,0.14063 -0.516371,0.31591 -0.182181,0.058 0.03198,-0.0267 0.223162,-0.10889 0.182181,-0.058 z m 1.818164,0.047 c -0.255037,0.26779 -0.60057,0.61404 -0.837568,0.80963 0.245647,-0.28062 0.672471,-0.67937 0.837568,-0.80963 z m -10.551144,0.0151 c -0.133922,0.21485 -0.385837,0.16354 -0.06943,-0.003 -0.0649,0.0524 0.236974,-0.11996 0.06943,0.003 z m -8.326334,7.9e-4 c -0.613723,0.57515 -0.306766,0.26239 0,0 z m 10.304232,0.0112 c -0.325001,0.35433 -0.124979,0.0952 0,0 z m -2.843652,0.0321 c -0.130469,0.21959 -0.189579,0.10988 0,0 z m 14.648405,0.0532 c -0.18656,0.19357 0.08599,-0.10306 0,0 z m 5.837385,0.0483 c -0.203334,0.22607 -0.628411,0.57314 -0.194709,0.16678 0.01733,-0.015 0.341564,-0.31834 0.194709,-0.16678 z m -45.101476,-0.0431 c 0.25202,0.11705 -0.0573,0.10018 0,0 z m -2.25247,0.0266 c -0.2324,0.31621 -0.55187,0.62175 -0.82087,0.86706 0.26529,-0.27336 0.5739,-0.6471 0.82087,-0.86706 z m 26.430189,0.37062 c -0.202909,0.22139 -0.192538,0.12764 0,0 z m -6.265696,0.0976 c -0.364456,0.32122 -0.06904,0.0462 0,0 z m 8.146762,0.0397 c 0.252018,0.11705 -0.05736,0.10018 0,0 z m 2.405424,0.26727 c 0.252021,0.11705 -0.05736,0.10018 0,0 z m 9.7248,0.13181 c -0.310734,0.314 -0.692557,0.72609 -0.999651,0.95528 0.289534,-0.32252 0.792977,-0.78262 0.999651,-0.95528 z m 0.537673,0.26988 c -0.187094,0.20195 -1.089159,1.0018 -0.472942,0.41891 0.11639,-0.11145 0.933177,-0.8755 0.472942,-0.41891 z m -31.397382,-0.15817 c 0.0253,0.15329 -0.18008,0.11181 0,0 z m 28.869022,0.008 c -0.14523,0.17114 -0.823836,0.71495 -0.347136,0.28553 0.104788,-0.093 0.261561,-0.2272 0.347136,-0.28553 z m -31.541722,0.25917 c 0.0253,0.15329 -0.18007,0.11181 0,0 z m -2.51139,0.06 c -0.093,0.0648 -0.12314,0.0331 0,0 z m 38.283487,0.0501 c -0.08536,0.22722 -0.143788,0.008 0,0 z m -11.846774,0.0378 c -0.315429,0.3061 -0.706565,0.60055 -0.174612,0.13599 0.03408,-0.0283 0.170619,-0.141 0.174612,-0.13599 z m -12.566365,0.11928 c 0.02532,0.15329 -0.180072,0.11182 0,0 z m -18.483358,0.0358 c -0.0472,0.17138 -0.52777,0.48643 -0.23308,0.16156 0.059,-0.0557 0.1907,-0.18024 0.23308,-0.16156 z m 36.454623,0.0512 c -0.177289,0.23056 -0.175115,0.13721 0,0 z m -37.829083,0.0162 c -0.33182,0.36901 -0.11609,0.068 0,0 z m 33.447845,0.16156 c -0.271764,0.26875 0.182917,-0.24441 0,0 z m -27.187365,-0.007 c -0.10383,0.14926 -0.61803,0.54113 -0.25762,0.19184 0.0315,-0.0303 0.40547,-0.3476 0.25762,-0.19184 z m 12.52826,0.01 c 0.02532,0.15329 -0.180072,0.11181 0,0 z m 25.175798,0.0102 c -0.08157,0.15438 -0.435065,0.38989 -0.166783,0.11562 0.04136,-0.0397 0.135406,-0.12034 0.166783,-0.11562 z m -42.144028,0.0198 c -0.28603,0.35717 -0.24601,0.13933 0,0 z m 5.16765,0.10101 c -0.27176,0.26875 0.18292,-0.24441 0,0 z m -3.76605,-0.047 c -0.13213,0.15078 -0.49491,0.43395 -0.18923,0.14773 0.0475,-0.0437 0.15546,-0.13879 0.18923,-0.14773 z m 39.838563,0.0556 c -0.160935,0.37523 -0.126989,0.11729 0,0 z m -16.086804,-0.007 c -0.109508,0.15154 -0.230923,0.16774 0,0 z m 0.778838,0.0211 c -0.202906,0.22139 -0.192537,0.12764 0,0 z m -14.416107,0.12841 c -0.0694,0.12216 0.0974,-0.22246 0,0 z m -15.26543,0.13573 c -0.13341,0.12789 -0.5508,0.52697 -0.62406,0.4377 0.17261,-0.16824 0.48295,-0.37388 0.62406,-0.4377 z m 41.248515,0.0498 c -0.325004,0.35432 -0.124979,0.0952 0,0 z m -32.866065,0.0642 c -0.27176,0.26875 0.18292,-0.2444 0,0 z m 30.559038,0.10702 c -0.545859,0.55188 0.208531,-0.23484 0,0 z m -18.131001,0.42752 c -0.271764,0.26875 0.182914,-0.24441 0,0 z m 23.151962,0.023 c -0.0894,0.11196 -0.229788,0.19975 0,0 z m -13.435774,0.0827 c -0.331825,0.36901 -0.116089,0.068 0,0 z m 0.614407,0.16417 c 0.02532,0.15329 -0.180073,0.11181 0,0 z m -10.69835,0.0204 c -0.0894,0.11196 -0.229788,0.19976 0,0 z m 19.901659,0.0352 c -0.222033,0.20381 -0.120909,0.0479 0,0 z m -27.878771,0.21063 c -0.10951,0.15153 -0.23092,0.16774 0,0 z m 25.473346,0.0566 c -0.222033,0.20382 -0.120912,0.0479 0,0 z m 4.495035,0.20463 c -0.185761,0.23766 -0.111011,0.14268 0,0 z m -15.407931,0.0671 c -0.09294,0.0648 -0.123139,0.0331 0,0 z m -7.338168,0.10936 c -0.01392,0.1561 -0.455168,0.49296 -0.194447,0.18427 0.05758,-0.0643 0.129547,-0.13657 0.194447,-0.18427 z m -7.674082,0.0198 c -0.22203,0.20381 -0.12091,0.0479 0,0 z m 8.260825,0.0546 c -0.08536,0.22723 -0.143791,0.008 0,0 z m 23.252448,0 c -0.08536,0.22723 -0.143791,0.008 0,0 z m 0.793194,0.094 c -0.08758,0.18274 -0.523769,0.42007 -0.202279,0.12633 0.06153,-0.0473 0.136464,-0.0964 0.202279,-0.12633 z m -25.593145,0.12111 c -0.140637,0.1755 -0.326911,0.30275 -0.06342,0.0488 -0.01945,0.021 0.147626,-0.14278 0.06342,-0.0488 z m 15.57915,0.0522 c -0.08535,0.22722 -0.143787,0.008 0,0 z m -17.173371,0.21401 c -0.356647,0.36016 0.01289,-0.045 0,0 z m 3.306416,0.70288 c -0.269983,0.26535 -0.109659,0.0794 0,0 z m -14.463617,0.15217 c -0.0854,0.22722 -0.14379,0.008 0,0 z m 27.158921,0.24874 c -0.269984,0.26534 -0.109662,0.0794 0,0 z m 5.229764,0.0498 c -0.193172,0.18633 -0.396372,0.27511 -0.08744,0.0472 1.35e-4,0.002 0.195058,-0.1416 0.08744,-0.0472 z m -15.786912,0.0838 c -0.269983,0.26535 -0.109659,0.0794 0,0 z m -1.435007,0.0981 c -1.101249,1.11175 0.403617,-0.42343 0,0 z m 1.984946,0.15034 c -0.418872,0.4365 -0.107889,0.0827 0,0 z m -6.819809,0.19445 c 0.02532,0.15329 -0.180073,0.11181 0,0 z m 1.849744,0.0851 c -0.0037,0.17207 -0.42653,0.53009 -0.155819,0.17357 0.03994,-0.0594 0.107522,-0.15581 0.155819,-0.17357 z m 15.052704,0.0373 c -0.659442,0.51514 0.07838,-0.10125 0,0 z m -11.197915,-0.0125 c -0.220483,0.27647 -0.12286,0.0831 0,0 z m 11.42212,1.01818 c -0.234611,0.244 -0.149407,0.0958 0,0 z m -11.34695,0.332 c -0.333544,0.34598 -0.115358,0.0785 0,0 z m -2.417431,0.20254 c -0.234609,0.244 -0.149408,0.0958 0,0 z m 1.235075,0.17775 c -0.331822,0.36901 -0.116086,0.068 0,0 z m 1.528188,0.0848 c -0.269843,0.23517 -0.268354,0.12195 0.02714,-0.0287 z m 12.839639,0.0373 c -0.269984,0.26534 -0.109662,0.0794 0,0 z m -19.619257,0.1 c -0.14064,0.17551 -0.32691,0.30276 -0.0634,0.0488 -0.0194,0.021 0.147634,-0.14278 0.0634,-0.0488 z m 5.776313,0.0519 c 0.02331,0.0782 -0.349642,0.0416 0,0 z m -11.726193,0.0363 c -0.0851,0.28353 -0.38461,0.24982 -0.0569,0.0368 -0.0168,0.0346 0.0704,-0.0726 0.0569,-0.0368 z m 19.772468,0.0953 c -0.07326,0.14239 -0.45716,0.48642 -0.188185,0.17748 0.04504,-0.0507 0.168693,-0.18574 0.188185,-0.17748 z m -14.882268,0.0827 c -0.35665,0.36017 0.0129,-0.045 0,0 z m -5.4109,0.32052 c -0.0854,0.22722 -0.14379,0.008 0,0 z m 7.038792,0.18113 c -0.06371,0.15433 -0.732922,0.72589 -0.38916,0.39021 0.08829,-0.0709 0.419764,-0.457 0.38916,-0.39021 z"
         id="path863" />
      <circle
         style="fill:#f0bd5e;fill-opacity:1;stroke-width:4.42358;stroke-linejoin:round;paint-order:fill markers stroke;stop-color:#000000"
         id="path881"
         cx="-95.061012"
         cy="147.97768"
         r="63.499996" />
      <circle
         style="fill:#d49134;fill-opacity:0.992157;stroke-width:4.42358;stroke-linejoin:round;paint-order:fill markers stroke;stop-color:#000000"
         id="circle883"
         cx="-95.061012"
         cy="147.97768"
         r="52.349701" />
      <path
         style="fill:#fdf5e2;fill-opacity:1;stroke-width:4.42358;stroke-linejoin:round;paint-order:fill markers stroke;stop-color:#000000"
         d="m -95.280695,111.97423 c -0.463,-0.0515 -0.69621,0.37679 -1.02863,0.61937 -1.614,2.54378 -2.60985,5.42138 -3.954205,8.10896 -0.78264,1.76285 -1.69477,3.54524 -2.4078,5.29967 -0.34049,0.19175 -0.21973,0.75816 -0.49723,1.04894 -0.62762,1.37743 -1.38918,2.77724 -1.9082,4.16282 -0.33608,0.18841 -0.21853,0.74912 -0.49267,1.03592 -0.24488,0.42836 -0.4417,0.92705 -0.57301,1.36898 -0.29598,0.1078 -0.11783,0.54487 -0.4197,0.65617 -0.0129,0.26558 -0.11013,0.41519 -0.2858,0.57421 0.002,0.66287 -0.93016,0.52559 -1.36845,0.65773 -6.62724,0.94904 -13.2927,1.64852 -19.92421,2.5805 -0.761,-0.007 -1.4083,0.37652 -2.15371,0.42315 -0.96272,0.22482 -1.95543,0.78115 -2.14416,1.8414 -0.26247,0.87399 0.55976,1.63721 1.10222,2.20993 1.97013,1.63423 3.85168,3.3691 5.80946,5.01 2.37338,2.17099 4.81597,4.2607 7.23977,6.37166 1.63897,1.29534 3.16267,2.7633 4.7375,4.11684 0.29015,0.80392 -0.37501,1.62974 -0.39307,2.45084 -0.37463,1.1011 -0.53308,2.25796 -0.87854,3.36671 -0.0401,0.59842 -0.21342,1.15157 -0.45076,1.67565 0.0671,0.58499 -0.38224,1.00965 -0.30798,1.59892 -0.41797,0.7079 -0.31103,1.62298 -0.6366,2.37098 -0.24918,0.38602 -0.0597,0.91877 -0.36775,1.28545 -0.27945,1.07321 -0.33631,2.23622 -0.71359,3.26805 -0.21176,0.40092 -0.0715,0.90888 -0.35967,1.28179 0.0478,0.67467 -0.41292,1.17656 -0.41682,1.85053 5.3e-4,0.56184 -0.27175,1.02409 -0.41604,1.52767 0.0436,0.57893 -0.40215,1.01495 -0.29912,1.61457 -0.28532,0.63232 -0.36649,1.45285 -0.084,2.1024 0.31206,1.06433 1.62358,1.86992 2.71863,1.38881 2.14682,-0.88884 4.02849,-2.30103 6.08309,-3.37593 1.13105,-0.65213 2.29635,-1.32414 3.44517,-1.90629 0.0291,-0.29982 0.51931,-0.0628 0.58727,-0.36698 0.48266,-0.29187 0.97965,-0.6354 1.47389,-0.86836 0.37775,0.0198 0.46926,-0.4173 0.85949,-0.4471 0.483,-0.19508 0.7825,-0.66489 1.31338,-0.69245 0.32672,-0.44647 1.03117,-0.49714 1.42666,-0.91978 1.994415,-1.16406 3.986315,-2.34662 5.969715,-3.52906 0.67407,0.15724 1.28453,0.73967 1.91261,1.07304 0.57026,0.44196 1.24569,0.768 1.84561,1.12671 0.2112,0.31802 0.7429,0.34648 1.01948,0.64991 0.85127,0.437 1.61378,1.02531 2.45737,1.47416 1.44814,0.87243 2.92168,1.71584 4.38385,2.56542 2.14745,1.33734 4.37936,2.54605 6.56065,3.84396 1.29964,0.73468 2.77416,1.92684 4.36268,1.32107 1.24917,-0.5521 1.44006,-2.07674 1.14268,-3.26152 -1.28464,-5.82302 -2.58553,-11.64764 -3.86079,-17.47118 -0.25944,-0.944 -0.51203,-1.91269 -0.68983,-2.8648 -0.0247,-0.71658 -0.57959,-1.48604 -0.16444,-2.18853 1.41102,-1.49206 3.08445,-2.73053 4.53933,-4.18935 2.66053,-2.45171 5.39339,-4.81067 8.03121,-7.28366 1.80908,-1.55597 3.53013,-3.21647 5.26631,-4.85391 0.97788,-0.81569 0.59227,-2.5833 -0.57865,-3.03132 -0.52722,-0.25607 -1.11037,-0.25571 -1.65112,-0.4706 -1.21661,-0.1391 -2.43106,-0.25639 -3.61414,-0.56873 -2.32092,-0.27734 -4.65553,-0.55933 -6.96963,-0.86366 -1.65646,-0.41292 -3.3956,-0.37133 -5.07524,-0.68619 -2.39093,-0.36832 -4.83069,-0.47064 -7.19906,-0.95006 -0.67617,-0.73861 -0.82814,-1.84251 -1.33452,-2.70062 -1.50051,-3.63358 -3.1886,-7.18981 -4.72028,-10.80771 0.0402,-0.3558 -0.36457,-0.38211 -0.3367,-0.72455 -0.25238,-0.69492 -0.68349,-1.33632 -0.84592,-2.03897 -0.35177,-0.15901 -0.22322,-0.7382 -0.49914,-1.02084 -0.87922,-1.70329 -1.43787,-3.58122 -2.45022,-5.20754 -0.42679,-0.60667 -1.13746,-0.65106 -1.81659,-0.6332 z"
         id="path861" />
    </g>
  </g>
</svg>
